<?xml version="1.0" encoding="UTF-8"?>
<svg version="1.1" xmlns="http://www.w3.org/2000/svg" width="930" height="976">
<path d="M0 0 C5.67440761 2.8687985 10.50815117 8.09045103 13.56640625 13.57421875 C16.40155697 22.5273263 17.85691178 29.5426062 13.75390625 38.32421875 C10.0481863 45.08249219 3.98386289 49.93269005 -1.65625 55.03515625 C-14.55873979 66.70084108 -14.55873979 66.70084108 -25.24609375 80.32421875 C-25.973125 81.34902344 -25.973125 81.34902344 -26.71484375 82.39453125 C-33.62716988 92.79828742 -37.20038044 105.33980347 -38.80859375 117.63671875 C-38.90624023 118.33547119 -39.00388672 119.03422363 -39.10449219 119.75415039 C-39.44106349 122.98357572 -39.3298188 125.12904152 -38.04296875 128.12890625 C-36.13364782 130.46159834 -34.55873057 131.67634852 -31.93359375 133.13671875 C-31.04285156 133.64589844 -30.15210938 134.15507812 -29.234375 134.6796875 C-27.17300963 135.8141121 -25.10764222 136.94128444 -23.0390625 138.0625 C-2.87846452 149.19115009 17.70776245 164.69587792 28.75390625 185.32421875 C29.75114012 186.90929574 30.75118522 188.49260723 31.75390625 190.07421875 C41.94022578 207.35021667 47.76324767 225.49116005 48.02734375 245.60546875 C48.03991714 246.48400513 48.05249054 247.3625415 48.06544495 248.2677002 C48.73536561 306.50954772 32.90543502 362.92113066 7.75390625 415.32421875 C7.45206421 415.95453003 7.15022217 416.58484131 6.8392334 417.23425293 C-2.3496279 436.39287618 -11.8383294 455.03747799 -23.57836914 472.78100586 C-25.34318382 475.4722772 -27.04812862 478.19677314 -28.75390625 480.92578125 C-31.899233 485.87730063 -35.301312 490.53414106 -38.93359375 495.13671875 C-39.46919922 495.82830078 -40.00480469 496.51988281 -40.55664062 497.23242188 C-50.48425394 509.91833877 -61.22644131 521.6326743 -72.64624023 532.98510742 C-74.81665936 535.14474429 -76.97609192 537.31495778 -79.13476562 539.48632812 C-86.52768805 546.88632895 -93.9517374 553.93082164 -102.24609375 560.32421875 C-103.66292095 561.44901657 -105.07961352 562.57398402 -106.49609375 563.69921875 C-108.07489604 564.91346634 -109.65885091 566.12102548 -111.24609375 567.32421875 C-111.77154785 567.72366699 -112.29700195 568.12311523 -112.83837891 568.53466797 C-121.70913799 575.24935707 -130.8080655 581.39210585 -140.32568359 587.15087891 C-142.11255699 588.24262993 -143.87837391 589.36126764 -145.640625 590.4921875 C-170.68313256 606.34773845 -198.96707242 617.84848121 -227.49975586 625.57592773 C-229.29885998 626.06612723 -231.0942125 626.57036072 -232.88500977 627.09008789 C-255.02329698 633.43245198 -283.72448937 639.03692157 -306.24609375 632.32421875 C-307.66728516 631.91623047 -307.66728516 631.91623047 -309.1171875 631.5 C-318.81057315 628.23936343 -325.44314239 623.29966583 -331.0546875 614.73046875 C-336.06501004 604.61125994 -335.4938652 593.21804186 -332.18359375 582.69921875 C-326.11352792 565.80641965 -315.12051459 551.64219187 -304.68359375 537.26171875 C-275.41119186 496.87310613 -256.19282569 451.96821594 -244.97363281 403.45654297 C-244.29278914 400.52525963 -243.59603938 397.59826939 -242.89453125 394.671875 C-234.26064758 358.27945052 -230.8680248 321.34429874 -228.82849121 284.09393311 C-226.52721958 242.09039435 -226.52721958 242.09039435 -224.765625 226.48046875 C-224.59975136 224.98484909 -224.59975136 224.98484909 -224.43052673 223.45901489 C-223.23773225 213.71711326 -220.65324244 204.51053108 -217.24609375 195.32421875 C-216.97780762 194.60024902 -216.70952148 193.8762793 -216.43310547 193.13037109 C-209.47453423 174.89483341 -197.4575431 159.51227444 -182.24609375 147.32421875 C-181.29669922 146.56044922 -181.29669922 146.56044922 -180.328125 145.78125 C-164.32241989 133.35366659 -146.09119088 127.7761262 -126.5703125 123.5234375 C-125.43207031 123.27207031 -124.29382813 123.02070313 -123.12109375 122.76171875 C-122.12851562 122.55417969 -121.1359375 122.34664063 -120.11328125 122.1328125 C-119.16710937 121.86597656 -118.2209375 121.59914063 -117.24609375 121.32421875 C-116.20324219 121.03546875 -115.16039062 120.74671875 -114.0859375 120.44921875 C-109.50731796 117.02312655 -109.16678839 112.28434142 -107.93359375 106.88671875 C-104.91305854 94.97276679 -100.70691614 84.30480248 -95.24609375 73.32421875 C-94.70597656 72.18339844 -94.16585937 71.04257813 -93.609375 69.8671875 C-85.35566807 53.33898344 -72.75398149 36.82404904 -58.24609375 25.32421875 C-57.19264649 24.47012835 -56.13926783 23.61595334 -55.0859375 22.76171875 C-48.08885763 17.12989909 -41.04726038 11.81143333 -33.24609375 7.32421875 C-32.65602539 6.97166016 -32.06595703 6.61910156 -31.45800781 6.25585938 C-21.33085343 0.27934673 -11.93863389 -3.59197159 0 0 Z " fill="#C6393F" transform="translate(602.24609375,153.67578125)"/>
</svg>
